{"accessors" : [{"bufferView" : 0, "byteOffset" : 0, "componentType" : 5123, "count" : 20820, "type" : "SCALAR", "max" : [20819], "min" : [0]}, {"bufferView" : 1, "byteOffset" : 0, "componentType" : 5126, "count" : 20820, "type" : "VEC3", "max" : [65.0016098022461, 93, 65.01313018798828], "min" : [0.01152046024799347, 2, 0], "name" : "POSITION"}, {"bufferView" : 1, "byteOffset" : 12, "componentType" : 5126, "count" : 20820, "type" : "VEC3", "max" : [1.0000044107437134, 1.0000044107437134, 1.0000044107437134], "min" : [-1.0000044107437134, -1.0000044107437134, -1.0000044107437134], "name" : "NORMAL"}], "asset" : {"generator" : "Aspose.3D 23.2", "version" : "2.0"}, "buffers" : [{"uri" : "data:application/octet-stream;base64,", "byteLength" : 541328}], "bufferViews" : [{"buffer" : 0, "byteOffset" : 0, "byteLength" : 41640, "target" : 34963}, {"buffer" : 0, "byteOffset" : 41644, "byteLength" : 499680, "byteStride" : 24, "target" : 34962}], "meshes" : [{"primitives" : [{"attributes" : {"POSITION" : 1, "NORMAL" : 2}, "indices" : 0, "mode" : 4}], "name" : "MinoltaMacroTop"}], "nodes" : [{"mesh" : 0, "name" : "MinoltaMacroTop"}], "scene" : 0, "scenes" : [{"nodes" : [0]}]}